<svg xmlns="http://www.w3.org/2000/svg" width="160" height="108" viewBox="0 0 160 108"><g style="transform:matrix(1,0,0,1,0,0)"><path fill="#FFF" d="M49.1 102.4c0 1.2-1 2.1-2.1 2.1H20.6c-1.2 0-2.1-1-2.1-2.1v-56c0-1.2 1-2.1 2.1-2.1h26.3c1.2 0 2.1 1 2.1 2.1v56h.1z"/><path fill="#00D9B3" d="M46.9 106H20.6c-2 0-3.6-1.6-3.6-3.6v-56c0-2 1.6-3.6 3.6-3.6h26.3c2 0 3.6 1.6 3.6 3.6v56c.1 2-1.6 3.6-3.6 3.6zM20.6 45.7c-.3 0-.6.3-.6.6v56c0 .4.3.6.6.6h26.3c.4 0 .6-.3.6-.6v-56c0-.4-.3-.6-.6-.6H20.6z"/><path fill="#00D9B3" d="M35.9 97.2c0 1.2-1 2.1-2.1 2.1-1.2 0-2.1-1-2.1-2.1 0-1.2 1-2.1 2.1-2.1 1.2-.1 2.1.9 2.1 2.1m-.5-20.7c2.3-.8 3.9-2.9 3.9-5.4 0-3.2-2.6-5.7-5.7-5.7-3.2 0-5.7 2.6-5.7 5.7v10.1c0 .5.4.9.9.9h10.1c.4 0 .7-.2.8-.5.1-.3.1-.7-.2-1l-4.1-4.1zm-1.8-9.4c2.2 0 4 1.8 4 4 0 2.1-1.6 3.8-3.6 4l-4.3-4.3c.1-2.1 1.8-3.7 3.9-3.7m-4 13.2v-7.1l7.1 7.1h-7.1z"/></g><g style="transform:matrix(1,0,0,1,0,0)"><path fill="#FFF" d="M128.6 77.6c0 1.7-1.3 3-3 3H46.5c-1.7 0-3-1.3-3-3V21.1c0-1.7 1.3-3 3-3h79.1c1.7 0 3 1.3 3 3v56.5z"/><path fill="#00D9B3" d="M125.6 82.1H46.5c-2.5 0-4.5-2-4.5-4.5V21.1c0-2.5 2-4.5 4.5-4.5h79.1c2.5 0 4.5 2 4.5 4.5v56.5c0 2.5-2 4.5-4.5 4.5zM46.5 19.6c-.8 0-1.5.7-1.5 1.5v56.5c0 .8.7 1.5 1.5 1.5h79.1c.8 0 1.5-.7 1.5-1.5V21.1c0-.8-.7-1.5-1.5-1.5H46.5z"/><path fill="#00D9B3" d="M101.8 106c-7.3 0-13.2-5.9-13.2-13.2V80.6c0-.8.7-1.5 1.5-1.5s1.5.7 1.5 1.5v12.2c0 5.6 4.6 10.2 10.2 10.2.8 0 1.5.7 1.5 1.5s-.6 1.5-1.5 1.5zm-31.6 0c-.8 0-1.5-.7-1.5-1.5s.7-1.5 1.5-1.5c5.6 0 10.2-4.6 10.2-10.2V80.6c0-.8.7-1.5 1.5-1.5s1.5.7 1.5 1.5v12.2c0 7.3-5.9 13.2-13.2 13.2zm18.4-52.2c3.6-1.2 6.2-4.6 6.2-8.6 0-5-4.1-9-9-9s-9 4.1-9 9v15.9c0 .8.6 1.4 1.4 1.4H94c.6 0 1.1-.3 1.3-.8s.1-1.1-.3-1.5l-6.4-6.4zm-2.9-14.9c3.5 0 6.3 2.8 6.3 6.3 0 3.3-2.5 6-5.7 6.3l-6.8-6.8c.3-3.2 3-5.8 6.2-5.8m-6.2 20.8V48.5l11.2 11.2H79.5z"/></g></svg>