<svg xmlns="http://www.w3.org/2000/svg" width="400" height="142" viewBox="0 0 1676 746" style="zoom:1"><title>logo_lockup_summer_of_code_vertical_Roboto</title><g fill="none" fill-rule="evenodd"><g transform="translate(540)"><path fill="#FBBC05" d="M365.4 450.4h109.2V341.2l77.2-77.2-77.2-77.1V77.6H365.4L288.3.5l-77.2 77.1H101.9v109.3L24.7 264l77.2 77.2v109.2h109.2l77.2 77.1z"/><path d="M288.3 95.6c92.9 0 168.4 75.6 168.4 168.4 0 92.8-75.6 168.4-168.4 168.4-92.9 0-168.4-75.6-168.4-168.4 0-92.8 75.5-168.4 168.4-168.4m0-9.5c-98.3 0-178 79.7-178 178s79.7 178 178 178 178-79.7 178-178-79.7-178-178-178" fill="#FFF"/><path d="M296.5 181.7l-.2 1.1-35.8 157.6-1.3 6h22.2l.2-1.1 35.8-157.6 1.3-6h-22.2zm-56.6 21.5l-2.9 2.2-64.5 50.2-4.3 3.4v10.3l4.3 3.4 64.5 50.2 2.9 2.2V298l-43.4-33.8 43.4-33.8v-27.2zm96.5 0v27.1l43.4 33.8-43.4 33.8V325l2.9-2.2 64.5-50.2 4.3-3.4v-10.3l-4.3-3.4-64.5-50.2-2.9-2.1z" fill="#FFF"/><circle stroke="#FFF" stroke-width="24" cx="288.2" cy="264" r="176"/><path d="M.2 1h576v527H.2z"/></g><path d="M463.5 678c-10.1-2.9-17.5-6.5-22.1-10.7-4.6-4.2-6.9-9.5-6.9-15.7 0-7.1 2.8-12.9 8.5-17.5s13-6.9 22-6.9c6.2 0 11.6 1.2 16.5 3.6 4.8 2.4 8.6 5.7 11.2 9.8 2.6 4.2 4 8.8 4 13.7h-11.9c0-5.4-1.7-9.7-5.2-12.8-3.4-3.1-8.3-4.7-14.6-4.7-5.8 0-10.4 1.3-13.6 3.9-3.2 2.6-4.9 6.1-4.9 10.7 0 3.7 1.5 6.8 4.6 9.3 3.1 2.5 8.4 4.8 15.8 6.9 7.4 2.1 13.3 4.4 17.5 6.9 4.2 2.5 7.3 5.5 9.4 8.8 2 3.4 3 7.3 3 11.9 0 7.3-2.8 13.1-8.5 17.4-5.7 4.4-13.2 6.6-22.7 6.6-6.2 0-11.9-1.2-17.2-3.5-5.3-2.3-9.4-5.6-12.3-9.7-2.9-4.1-4.3-8.8-4.3-14h11.9c0 5.4 2 9.7 6 12.8 4 3.1 9.3 4.7 16 4.7 6.2 0 11-1.3 14.3-3.8 3.3-2.5 5-6 5-10.4s-1.5-7.8-4.6-10.2c-3.1-2.4-8.9-4.7-16.9-7.1zm87.6 33.4c-4.4 5.2-10.9 7.8-19.5 7.8-7.1 0-12.5-2.1-16.2-6.2-3.7-4.1-5.6-10.2-5.6-18.3v-43.3h11.4v43c0 10.1 4.1 15.1 12.3 15.1 8.7 0 14.5-3.2 17.3-9.7v-48.4h11.4V718h-10.8l-.3-6.6zm39.1-60l.3 7.4c4.9-5.7 11.5-8.6 19.7-8.6 9.3 0 15.6 3.6 19 10.7 2.2-3.2 5.1-5.8 8.6-7.8s7.7-3 12.6-3c14.6 0 22 7.7 22.3 23.2v44.6h-11.4V674c0-4.8-1.1-8.3-3.3-10.7-2.2-2.4-5.8-3.5-11-3.5-4.2 0-7.7 1.3-10.5 3.8s-4.4 5.9-4.9 10.2V718h-11.4v-43.6c0-9.7-4.7-14.5-14.2-14.5-7.5 0-12.6 3.2-15.3 9.5V718h-11.4v-66.6h10.9zm110.4 0l.3 7.4c4.9-5.7 11.5-8.6 19.7-8.6 9.3 0 15.6 3.6 19 10.7 2.2-3.2 5.1-5.8 8.6-7.8s7.7-3 12.6-3c14.6 0 22 7.7 22.3 23.2v44.6h-11.4V674c0-4.8-1.1-8.3-3.3-10.7-2.2-2.4-5.8-3.5-11-3.5-4.2 0-7.7 1.3-10.5 3.8s-4.4 5.9-4.9 10.2V718h-11.4v-43.6c0-9.7-4.7-14.5-14.2-14.5-7.5 0-12.6 3.2-15.3 9.5V718h-11.4v-66.6h10.9zM828 719.2c-9 0-16.4-3-22-8.9-5.7-5.9-8.5-13.9-8.5-23.8v-2.1c0-6.6 1.3-12.5 3.8-17.7 2.5-5.2 6-9.2 10.6-12.2 4.5-2.9 9.4-4.4 14.7-4.4 8.7 0 15.4 2.9 20.2 8.6 4.8 5.7 7.2 13.9 7.2 24.5v4.7h-45.1c.2 6.6 2.1 11.9 5.8 15.9 3.7 4 8.3 6.1 14 6.1 4 0 7.4-.8 10.2-2.5 2.8-1.6 5.2-3.8 7.3-6.5l7 5.4c-5.7 8.6-14.1 12.9-25.2 12.9zm-1.4-59.7c-4.6 0-8.4 1.7-11.6 5-3.1 3.3-5 8-5.8 14.1h33.3v-.9c-.3-5.8-1.9-10.3-4.7-13.4-2.7-3.2-6.5-4.8-11.2-4.8zm72.7 2.1c-1.7-.3-3.6-.4-5.6-.4-7.5 0-12.5 3.2-15.2 9.5v47.2h-11.4v-66.6h11.1l.2 7.7c3.7-5.9 9-8.9 15.9-8.9 2.2 0 3.9.3 5 .9v10.6zm38.6 22.4c0-6.5 1.3-12.4 3.8-17.6 2.6-5.2 6.1-9.2 10.7-12.1 4.6-2.9 9.8-4.2 15.7-4.2 9.1 0 16.4 3.1 22 9.4 5.6 6.3 8.4 14.6 8.4 25v.8c0 6.5-1.2 12.3-3.7 17.4-2.5 5.1-6 9.2-10.6 12-4.6 2.9-9.9 4.3-15.9 4.3-9 0-16.3-3.1-21.9-9.4-5.6-6.3-8.4-14.6-8.4-24.9v-.7h-.1zm11.5 1.4c0 7.4 1.7 13.3 5.1 17.8 3.4 4.5 8 6.7 13.8 6.7 5.8 0 10.4-2.3 13.8-6.8 3.4-4.5 5.1-10.9 5.1-19 0-7.3-1.7-13.2-5.2-17.7s-8.1-6.8-13.8-6.8c-5.6 0-10.2 2.2-13.6 6.7-3.5 4.4-5.2 10.8-5.2 19.1zm69 32.5v-57.8h-10.5v-8.8h10.5v-6.8c0-7.1 1.9-12.7 5.7-16.5 3.8-3.9 9.2-5.8 16.2-5.8 2.6 0 5.2.3 7.8 1l-.6 9.2c-1.9-.4-4-.6-6.2-.6-3.7 0-6.5 1.1-8.6 3.2-2.1 2.1-3 5.3-3 9.3v7h14.2v8.8h-14.2v57.8h-11.3zm137-28.4c-1.1 9.5-4.6 16.8-10.5 21.9-5.9 5.1-13.7 7.7-23.5 7.7-10.6 0-19.1-3.8-25.4-11.4-6.4-7.6-9.6-17.7-9.6-30.5v-8.6c0-8.3 1.5-15.6 4.5-22 3-6.3 7.2-11.2 12.6-14.6 5.4-3.4 11.8-5.1 18.9-5.1 9.5 0 17.1 2.7 22.9 8 5.7 5.3 9.1 12.7 10 22.1h-11.9c-1-7.2-3.3-12.3-6.7-15.6-3.4-3.3-8.2-4.8-14.4-4.8-7.5 0-13.5 2.8-17.7 8.4-4.2 5.6-6.4 13.5-6.4 23.8v8.7c0 9.7 2 17.5 6.1 23.2 4.1 5.7 9.7 8.6 17 8.6 6.6 0 11.6-1.5 15.1-4.5s5.8-8.2 7-15.5h12v.2zm11.3-5.5c0-6.5 1.3-12.4 3.8-17.6 2.6-5.2 6.1-9.2 10.7-12.1 4.6-2.9 9.8-4.2 15.7-4.2 9.1 0 16.4 3.1 22 9.4 5.6 6.3 8.4 14.6 8.4 25v.8c0 6.5-1.2 12.3-3.7 17.4-2.5 5.1-6 9.2-10.6 12-4.6 2.9-9.9 4.3-15.9 4.3-9 0-16.3-3.1-21.9-9.4-5.6-6.3-8.4-14.6-8.4-24.9v-.7h-.1zm11.5 1.4c0 7.4 1.7 13.3 5.1 17.8 3.4 4.5 8 6.7 13.8 6.7 5.8 0 10.4-2.3 13.8-6.8 3.4-4.5 5.1-10.9 5.1-19 0-7.3-1.7-13.2-5.2-17.7s-8.1-6.8-13.8-6.8c-5.6 0-10.2 2.2-13.6 6.7-3.5 4.4-5.2 10.8-5.2 19.1zm60.6-1.3c0-10.2 2.4-18.4 7.3-24.6 4.9-6.2 11.2-9.3 19-9.3 7.8 0 14 2.7 18.5 8v-34.7h11.4V718h-10.5l-.6-7.1c-4.6 5.6-10.9 8.4-19 8.4-7.7 0-14-3.2-18.9-9.5-4.9-6.3-7.3-14.6-7.3-24.7v-1h.1zm11.4 1.3c0 7.5 1.6 13.5 4.7 17.7 3.1 4.3 7.4 6.4 12.9 6.4 7.2 0 12.5-3.2 15.8-9.7v-30.6c-3.4-6.3-8.6-9.4-15.7-9.4-5.6 0-9.9 2.2-13 6.5-3.1 4.3-4.7 10.6-4.7 19.1zm90.1 33.8c-9 0-16.4-3-22-8.9-5.7-5.9-8.5-13.9-8.5-23.8v-2.1c0-6.6 1.3-12.5 3.8-17.7 2.5-5.2 6-9.2 10.6-12.2 4.5-2.9 9.4-4.4 14.7-4.4 8.7 0 15.4 2.9 20.2 8.6 4.8 5.7 7.2 13.9 7.2 24.5v4.7h-45.1c.2 6.6 2.1 11.9 5.8 15.9 3.7 4 8.3 6.1 14 6.1 4 0 7.4-.8 10.2-2.5 2.8-1.6 5.2-3.8 7.3-6.5l7 5.4c-5.7 8.6-14 12.9-25.2 12.9zm-1.4-59.7c-4.6 0-8.4 1.7-11.6 5-3.1 3.3-5 8-5.8 14.1h33.3v-.9c-.3-5.8-1.9-10.3-4.7-13.4-2.7-3.2-6.5-4.8-11.2-4.8zm127.1 58.3h-58.2v-8.1l30.8-34.2c4.6-5.2 7.7-9.4 9.4-12.6 1.7-3.2 2.6-6.6 2.6-10 0-4.6-1.4-8.4-4.2-11.4-2.8-3-6.6-4.5-11.2-4.5-5.6 0-10 1.6-13.1 4.8-3.1 3.2-4.7 7.6-4.7 13.3h-11.3c0-8.2 2.6-14.8 7.9-19.8 5.3-5 12.3-7.6 21.1-7.6 8.3 0 14.8 2.2 19.6 6.5 4.8 4.3 7.2 10.1 7.2 17.3 0 8.7-5.6 19.2-16.7 31.2l-23.8 25.8h44.6v9.3zm67.7-37.9c0 13.2-2.3 23.1-6.8 29.5-4.5 6.4-11.6 9.6-21.2 9.6-9.5 0-16.5-3.1-21.1-9.4-4.6-6.3-6.9-15.7-7.1-28.2v-15.1c0-13.1 2.3-22.8 6.8-29.1 4.5-6.3 11.6-9.5 21.2-9.5s16.6 3.1 21.1 9.2 6.8 15.6 7 28.4v14.6h.1zm-11.3-15.4c0-9.6-1.3-16.5-4-20.9-2.7-4.4-6.9-6.6-12.8-6.6-5.8 0-10 2.2-12.6 6.5-2.6 4.4-4 11-4.1 20.1v18.1c0 9.6 1.4 16.7 4.2 21.3 2.8 4.6 7 6.9 12.7 6.9 5.6 0 9.7-2.2 12.4-6.5 2.7-4.3 4.1-11.1 4.2-20.4v-18.5zm62.9 53.3h-11.4v-75.3l-22.8 8.4v-10.3l32.3-12.1h1.8v89.3zm77.3-88.9v9.6h-2.1c-8.8.2-15.8 2.8-21 7.8-5.2 5-8.2 12.1-9 21.3 4.7-5.4 11.1-8.1 19.2-8.1 7.7 0 13.9 2.7 18.5 8.2 4.6 5.5 6.9 12.5 6.9 21.1 0 9.2-2.5 16.5-7.5 22s-11.7 8.2-20.1 8.2c-8.5 0-15.4-3.3-20.7-9.8-5.3-6.5-7.9-14.9-7.9-25.2v-4.3c0-16.4 3.5-28.9 10.5-37.5 7-8.6 17.4-13.1 31.2-13.3h2zm-14.8 40c-3.9 0-7.4 1.2-10.7 3.5-3.3 2.3-5.5 5.2-6.8 8.7v4.2c0 7.3 1.6 13.2 4.9 17.7 3.3 4.5 7.4 6.7 12.3 6.7 5.1 0 9.1-1.9 12-5.6 2.9-3.7 4.4-8.6 4.4-14.7s-1.5-11-4.4-14.8c-2.9-3.8-6.8-5.7-11.7-5.7zM64.13 630.903c8.91 4.68 14.363 12.878 16.357 24.597H68.463c-1.465-6.551-4.496-11.322-9.094-14.313-4.598-2.99-10.397-4.486-17.395-4.486-8.301 0-15.29 3.113-20.966 9.339-5.676 6.225-8.514 15.502-8.514 27.832 0 10.66 2.34 19.338 7.019 26.031 4.68 6.694 12.308 10.04 22.888 10.04 8.097 0 14.8-2.35 20.111-7.05 5.31-4.699 8.026-12.298 8.148-22.796H42.584v-10.07h39.368V718h-7.813l-2.93-11.536c-4.11 4.517-7.751 7.65-10.925 9.4-5.33 3.01-12.105 4.516-20.325 4.516-10.62 0-19.755-3.438-27.404-10.315C4.213 701.44.042 689.598.042 674.543c0-15.015 4.07-26.957 12.208-35.828 7.73-8.463 17.74-12.695 30.029-12.695 8.423 0 15.706 1.628 21.85 4.883zm76.08 71.747c2.706-5.514 4.059-11.648 4.059-18.402 0-6.104-.977-11.068-2.93-14.893-3.093-6.022-8.423-9.033-15.991-9.033-6.714 0-11.597 2.563-14.649 7.69-3.052 5.127-4.577 11.312-4.577 18.555 0 6.958 1.525 12.756 4.577 17.395 3.052 4.639 7.894 6.958 14.527 6.958 7.283 0 12.278-2.757 14.984-8.27zm6.805-43.488c5.819 5.615 8.728 13.875 8.728 24.78 0 10.54-2.563 19.247-7.69 26.123-5.127 6.877-13.082 10.315-23.865 10.315-8.993 0-16.134-3.041-21.423-9.124-5.29-6.084-7.935-14.252-7.935-24.506 0-10.986 2.787-19.735 8.362-26.245 5.574-6.51 13.061-9.766 22.46-9.766 8.424 0 15.544 2.808 21.363 8.423zm62.714 43.488c2.706-5.514 4.059-11.648 4.059-18.402 0-6.104-.977-11.068-2.93-14.893-3.093-6.022-8.423-9.033-15.991-9.033-6.714 0-11.597 2.563-14.649 7.69-3.052 5.127-4.577 11.312-4.577 18.555 0 6.958 1.525 12.756 4.577 17.395 3.052 4.639 7.894 6.958 14.527 6.958 7.283 0 12.278-2.757 14.984-8.27zm6.805-43.488c5.819 5.615 8.728 13.875 8.728 24.78 0 10.54-2.563 19.247-7.69 26.123-5.127 6.877-13.082 10.315-23.865 10.315-8.993 0-16.134-3.041-21.423-9.124-5.29-6.084-7.935-14.252-7.935-24.506 0-10.986 2.787-19.735 8.362-26.245 5.575-6.51 13.061-9.766 22.46-9.766 8.424 0 15.544 2.808 21.363 8.423zm58.289-3.906c2.075 1.424 4.19 3.5 6.347 6.225v-8.24h10.132v59.449c0 8.3-1.22 14.852-3.662 19.653-4.557 8.87-13.163 13.306-25.818 13.306-7.04 0-12.96-1.577-17.761-4.73-4.801-3.154-7.487-8.087-8.057-14.801h11.17c.529 2.93 1.587 5.188 3.174 6.775 2.482 2.441 6.388 3.662 11.718 3.662 8.423 0 13.937-2.97 16.54-8.911 1.547-3.5 2.26-9.746 2.137-18.738-2.197 3.336-4.842 5.818-7.934 7.446-3.093 1.628-7.182 2.441-12.268 2.441-7.08 0-13.276-2.512-18.586-7.537-5.31-5.026-7.965-13.337-7.965-24.933 0-10.946 2.676-19.49 8.026-25.635 5.351-6.144 11.81-9.216 19.379-9.216 5.127 0 9.603 1.261 13.428 3.784zm1.343 11.78c-3.337-3.907-7.59-5.86-12.757-5.86-7.731 0-13.02 3.622-15.869 10.865-1.506 3.865-2.258 8.931-2.258 15.197 0 7.365 1.495 12.97 4.486 16.815 2.99 3.846 7.009 5.768 12.054 5.768 7.894 0 13.448-3.56 16.663-10.68 1.79-4.03 2.685-8.729 2.685-14.1 0-8.097-1.668-14.1-5.004-18.005zm31.982-38.697h10.986V718h-10.986v-89.66zm68.176 26.093c4.354 2.177 7.67 4.995 9.949 8.453 2.197 3.296 3.662 7.141 4.394 11.536.652 3.011.977 7.812.977 14.404h-47.913c.204 6.633 1.77 11.953 4.7 15.96 2.93 4.009 7.467 6.013 13.611 6.013 5.737 0 10.315-1.892 13.733-5.676 1.953-2.198 3.336-4.74 4.15-7.63h10.804c-.285 2.4-1.231 5.076-2.839 8.026-1.607 2.95-3.407 5.361-5.401 7.233-3.337 3.255-7.467 5.452-12.39 6.592-2.645.65-5.636.976-8.973.976-8.138 0-15.034-2.96-20.69-8.88-5.656-5.92-8.484-14.211-8.484-24.872 0-10.498 2.848-19.023 8.545-25.574 5.696-6.551 13.142-9.826 22.338-9.826 4.64 0 9.135 1.088 13.49 3.265zm4.029 25.665c-.448-4.76-1.486-8.565-3.113-11.413-3.011-5.29-8.037-7.935-15.076-7.935-5.046 0-9.277 1.82-12.695 5.463-3.418 3.641-5.229 8.27-5.432 13.885h36.316z" fill="#757575"/></g></svg>