<svg height="140" viewBox="0 0 400 206.8" width="400" xmlns="http://www.w3.org/2000/svg"><g fill-rule="evenodd"><path d="M44.156 103.413c0 56.933.024 80.225.053 51.758s.029-75.049 0-103.516-.053-5.176-.053 51.758"/><path d="M212.784 66.132c-.035.086-.017 31.8.04 70.476l.104 70.321-.001-70.373c0-46.719.069-70.401.206-70.459.114-.048.096-.094-.039-.103-.136-.009-.275.053-.31.138" fill="#878787"/><path d="M212.784 66.132c-.035.086-.017 31.8.04 70.476l.104 70.321-.001-70.373c0-46.719.069-70.401.206-70.459.114-.048.096-.094-.039-.103-.136-.009-.275.053-.31.138" fill="#878787"/><path d="M256.979 136.505c0 38.733.024 54.578.053 35.212.029-19.367.029-51.058 0-70.424-.029-19.367-.053-3.522-.053 35.212" fill="#868686"/><path d="M43.95 103.413c0 56.933.023 80.225.052 51.758s.029-75.049 0-103.516-.052-5.176-.052 51.758" fill="#8e001c"/><path d="M329.368 136.608c0 38.676.024 54.529.053 35.229.029-19.301.029-50.945 0-70.321s-.053-3.584-.053 35.092" fill="#990a1f"/><path d="M212.716 20.476c0 11.318.025 15.949.055 10.289.031-5.659.031-14.92 0-20.579-.03-5.659-.055-1.029-.055 10.29" fill="#970828"/><path d="M256.976 20.372c0 11.262.025 15.839.056 10.171s.031-14.882 0-20.476-.056-.956-.056 10.305" fill="#9e0c24"/><path d="M43.743 103.413c0 56.933.023 80.225.052 51.758s.029-75.049 0-103.516-.052-5.176-.052 51.758m27.3-33.092c0 38.733.024 54.578.053 35.212.029-19.367.029-51.058 0-70.424-.029-19.367-.053-3.522-.053 35.212m43.847-.207c0 38.619.024 54.418.053 35.108.029-19.309.029-50.907 0-70.217s-.053-3.511-.053 35.109m214.1-3.585c-.234.233-.165 140.296.069 140.296.137 0 .207-23.543.207-70.217 0-38.619-.031-70.217-.069-70.217s-.131.062-.207.138" fill="#9e152f"/><path d="M185.832 103.413c0 56.933.023 80.225.052 51.758s.029-75.049 0-103.516-.052-5.176-.052 51.758m99.275 33.298c0 38.62.024 54.419.053 35.109s.029-50.907 0-70.217-.053-3.511-.053 35.108" fill="#a01129"/><path d="M186.038 103.413c0 56.933.024 80.225.053 51.758s.029-75.049 0-103.516-.053-5.176-.053 51.758" fill="#a30723"/><path d="M70.63 70.321c0 38.733.023 54.578.053 35.212.029-19.367.029-51.058 0-70.424-.03-19.367-.053-3.522-.053 35.212" fill="#a20017"/><path d="M70.836 70.321c0 38.733.024 54.578.053 35.212.029-19.367.029-51.058 0-70.424-.029-19.367-.053-3.522-.053 35.212m141.987-50.052c0 13.375.071 20.269.207 20.269s.207-6.894.207-20.269S213.166 0 213.03 0s-.207 6.894-.207 20.269M82.074 141.003c5.952.031 15.631.031 21.51 0 5.878-.03 1.008-.055-10.823-.055-11.83 0-16.64.025-10.687.055" fill="#a2132d"/><path d="M285.105 20.269c0 11.205.025 15.788.055 10.186.031-5.602.031-14.77 0-20.372-.03-5.603-.055-1.019-.055 10.186" fill="#a3122b"/><path d="M0 103.413v103.412h43.64V0H0zm71.097-32.991l-.053 70.422 21.686.054c20.151.05 21.698.029 21.872-.295.109-.205.186-29.239.186-70.476V0H71.149zm70.785 32.991v103.412h43.847V0h-43.847zm71.305-82.989c-.029 11.233-.02 20.54.02 20.683.078.272 42.639.403 43.343.133.295-.114.327-2.129.327-20.683V0h-43.636zm72.025.01c0 15.618.058 20.493.248 20.683.192.192 13.223.248 57.394.248H400V0H285.212zm.363 45.559c-.342.199-.361 3.866-.362 70.521l-.002 70.311h43.641v-70.101c0-52.66.059-70.138.238-70.249.165-.102.121-.233-.143-.426-.482-.353-42.768-.407-43.372-.056" fill="#a41931"/><path d="M213.133 66.019c-.137.151-.189 23.873-.154 70.517l.052 70.289h43.846v-70.313c0-69.305-.006-70.316-.4-70.527-.579-.31-43.061-.277-43.344.034m-.414 70.692c0 38.62.023 54.419.052 35.109.03-19.31.03-50.907 0-70.217-.029-19.31-.052-3.511-.052 35.108" fill="#8b8c8d"/></g></svg>