<svg height="55" viewBox="0 0 400 478.61271676" width="155" xmlns="http://www.w3.org/2000/svg"><g fill-rule="evenodd"><path d="M142.4 6.804c-.77.417-1.589.902-1.82 1.077-.579.439-2.044 1.291-4.18 2.431-.99.528-2.07 1.178-2.4 1.444s-1.639.993-2.909 1.616c-1.269.622-2.411 1.299-2.537 1.503-.127.204-1.248.847-2.492 1.428s-2.352 1.18-2.462 1.331c-.11.15-1.28.855-2.6 1.566-1.32.712-2.887 1.639-3.482 2.061-.596.423-1.631.959-2.3 1.193-.67.233-1.218.568-1.218.743 0 .176-1.215.903-2.7 1.616s-2.79 1.422-2.9 1.576-1.19.818-2.4 1.477-2.961 1.678-3.892 2.266c-.931.587-1.851 1.068-2.046 1.068s-.783.336-1.308.746-2.028 1.318-3.34 2.016-2.662 1.497-3 1.775c-.338.277-1.514.943-2.614 1.478-1.1.536-2.09 1.087-2.2 1.224s-.83.568-1.6.958-2.702 1.495-4.293 2.456S78.69 43.6 78.538 43.6c-.151 0-.559.25-.907.555-.347.306-1.621 1.065-2.831 1.688-1.21.622-2.549 1.453-2.975 1.844-.427.392-.951.713-1.165.713-.213 0-2.475 1.238-5.024 2.751-2.55 1.513-5.446 3.158-6.436 3.654s-1.89 1.037-2 1.202-1.37.906-2.8 1.647c-1.43.74-2.662 1.487-2.738 1.659-.075.172-1.245.854-2.6 1.515-3.239 1.582-7.079 3.768-7.403 4.215-.143.197-1.384.885-2.759 1.531-1.375.645-2.5 1.287-2.5 1.425 0 .139-.635.556-1.411.926l-1.412.673.133 79.301c.133 79.871.269 87.501 1.556 87.501.184 0 .334.449.334.997 0 1.621 2.016 11.5 2.612 12.803.303.66 1.023 2.909 1.602 4.997s1.191 3.888 1.36 4 .711 1.463 1.204 3.003c.494 1.54 1.205 3.25 1.58 3.8.376.55 1.01 1.9 1.411 3 .4 1.1 1.011 2.45 1.359 3 .347.55 1.155 1.99 1.797 3.2.641 1.21 1.415 2.484 1.72 2.831.305.348.557.798.56 1 .007.463 3.571 5.941 4.959 7.624.57.69 1.036 1.427 1.036 1.639 0 .211.63 1.032 1.4 1.825s1.403 1.585 1.407 1.761c.018.837 12.305 13.844 15.86 16.79.843.698 2.367 1.975 3.386 2.838 1.02.863 2.505 1.971 3.3 2.463.796.492 1.447 1.022 1.447 1.178 0 .155.9.809 2 1.451s2 1.31 2 1.484.172.316.382.316c.36 0 2.878 1.539 3.869 2.364 1.216 1.013 10.096 5.621 10.849 5.63.275.003.5.153.5.333s1.575.934 3.5 1.677c1.925.742 3.59 1.457 3.7 1.589.589.708 15.279 5.182 17.067 5.199.476.004.926.178 1 .387.369 1.047 17.638 2.813 27.533 2.816 9.58.003 24.901-1.561 27.088-2.765.392-.216 2.782-.868 5.312-1.45 2.53-.581 4.78-1.195 5-1.363s1.75-.706 3.4-1.194 3.36-1.11 3.8-1.383c.44-.272 2.33-1.101 4.2-1.842 1.87-.74 3.49-1.447 3.6-1.572.11-.124 1.55-.899 3.2-1.722 3.134-1.562 11.906-6.421 12.602-6.981.351-.281 1.398-.869 4.798-2.694.44-.236.894-.553 1.008-.704.115-.151.655-.463 1.2-.693.546-.23 1.712-.867 2.592-1.416s2.5-1.476 3.6-2.06c1.1-.583 2.09-1.177 2.2-1.318s1.37-.868 2.8-1.614c1.43-.747 2.69-1.464 2.8-1.594s1.19-.761 2.4-1.402 2.296-1.307 2.414-1.481.838-.593 1.6-.931c.762-.339 2.106-1.067 2.986-1.618.88-.552 2.14-1.256 2.8-1.564.66-.309 1.65-.9 2.2-1.315.55-.414 2.17-1.361 3.6-2.103s2.69-1.456 2.8-1.586 1.19-.764 2.4-1.409c1.21-.646 2.438-1.409 2.729-1.697.29-.288.725-.524.966-.524s1.713-.769 3.271-1.71c1.559-.94 3.464-2.051 4.234-2.469.77-.419 1.49-.886 1.6-1.038.11-.153 1.19-.775 2.4-1.383s2.29-1.226 2.4-1.374.952-.655 1.871-1.126c2.421-1.241 3.431-1.838 4.016-2.374.285-.26.922-.6 1.415-.755.494-.155 1.798-.851 2.898-1.545 1.1-.695 2.81-1.68 3.8-2.188.99-.509 1.89-1.049 2-1.199s1.235-.79 2.5-1.422c1.265-.631 2.3-1.281 2.3-1.443 0-.163.527-.479 1.171-.704.644-.224 2.129-1.009 3.3-1.743s2.621-1.587 3.222-1.895c.602-.308 1.412-.846 1.8-1.196.389-.35 1.178-.878 1.753-1.174.575-.297 1.487-.949 2.028-1.45.54-.501 1.69-1.362 2.554-1.912.865-.55 2.037-1.428 2.605-1.95.568-.523 2.002-1.76 3.186-2.75 2.399-2.005 7.726-7.326 10.181-10.168a86.843 86.843 0 0 1 2.7-2.985c.605-.624 1.1-1.305 1.1-1.514 0-.21.509-.91 1.132-1.557.918-.954 3.312-4.332 6.077-8.576 2.586-3.967 7.097-12.667 7.986-15.4.287-.88.656-1.69.822-1.8.366-.244 2.783-7.554 2.783-8.42 0-.341.181-.801.401-1.021.47-.47 1.338-3.672 1.996-7.359.255-1.43.717-3.41 1.026-4.4 1.668-5.344 1.777-11.106 1.777-94.331 0-75.123-.038-79.411-.7-79.935-.385-.305-1.78-1.113-3.1-1.796s-2.49-1.353-2.6-1.49c-.228-.283-1.328-.917-3.729-2.148-.919-.471-1.761-.978-1.871-1.127-.11-.148-1.28-.847-2.6-1.551-1.32-.705-3.48-1.893-4.8-2.641-1.32-.747-2.675-1.364-3.011-1.37-.752-.014-5.035 2.178-5.851 2.994-.327.327-.792.595-1.033.595s-1.737.81-3.326 1.8c-1.588.99-3.007 1.8-3.153 1.8-.145 0-1.201.594-2.345 1.32-1.145.725-2.67 1.559-3.39 1.852-.721.293-1.441.734-1.6.98-.16.247-1.371.986-2.691 1.643-1.32.658-3.296 1.783-4.391 2.5-1.095.718-2.22 1.305-2.5 1.305s-.509.151-.509.336-1.125.917-2.5 1.627c-2.368 1.222-5.529 3.012-10.485 5.937-1.212.715-2.371 1.3-2.576 1.3s-.432.158-.506.35c-.073.193-1.303.936-2.733 1.652-1.43.715-2.69 1.434-2.8 1.597s-1.169.785-2.353 1.382-2.354 1.267-2.6 1.488c-.456.411-3.348 2.057-7.647 4.353-1.32.704-2.49 1.414-2.6 1.577s-1.169.785-2.353 1.382-2.354 1.267-2.6 1.488c-.456.411-3.348 2.057-7.647 4.353-1.32.704-2.49 1.415-2.6 1.578s-1.356.878-2.769 1.589-2.803 1.526-3.087 1.81c-.42.42-.545 16.447-.66 84.46-.125 74.616-.213 84.467-.788 88.679-.776 5.677-1.909 11.585-2.275 11.862-.146.11-.674 1.73-1.175 3.6-.5 1.87-1.177 3.94-1.504 4.6s-1.026 2.429-1.555 3.931c-.528 1.502-1.354 3.369-1.836 4.149l-.877 1.418-2.604-.267c-1.433-.147-2.799-.389-3.037-.538s-.693-.31-1.011-.358c-1.829-.276-11.054-2.681-11.222-2.925-.11-.16-1.46-.7-3-1.2s-3.34-1.22-4-1.599-2.235-1.098-3.5-1.597-2.3-1.031-2.3-1.183-1.26-.886-2.8-1.631-2.8-1.504-2.8-1.687-.405-.49-.9-.681c-1.485-.575-7.651-5.251-10.854-8.232-.71-.66-1.82-1.667-2.468-2.237-.989-.872-3.865-3.924-6.936-7.363-.393-.44-1.139-1.43-1.659-2.2s-1.269-1.691-1.664-2.047-.719-.765-.719-.908c0-.294-2.055-3.533-2.439-3.845-.473-.385-3.866-6.62-4.788-8.8-.512-1.21-1.046-2.29-1.187-2.4s-.753-1.55-1.36-3.2-1.334-3.54-1.615-4.2c-.282-.66-.899-2.82-1.372-4.8s-1.049-4.14-1.281-4.8c-1.696-4.843-1.683-4.183-1.835-90.2l-.144-81.8-1.29-.774c-.709-.425-2.279-1.303-3.489-1.95s-2.47-1.394-2.8-1.66-1.41-.893-2.4-1.394c-.99-.5-1.89-1.047-2-1.214-.11-.168-1.28-.882-2.6-1.586-1.32-.705-3.48-1.893-4.8-2.641-2.746-1.555-3.455-1.63-5.4-.577m2.545 174.996c.151.88.46 3.31.687 5.4.51 4.69 1.922 12.46 2.362 13 .179.22.82 2.29 1.424 4.6s1.217 4.29 1.364 4.4c.146.11.679 1.46 1.183 3 1.096 3.344 6.338 14.107 8.498 17.45.846 1.307 1.537 2.542 1.537 2.744 0 .201.251.51.559.686.307.176.974 1.04 1.482 1.92s1.049 1.69 1.203 1.8c.155.11.961 1.19 1.792 2.4s1.703 2.403 1.938 2.651c.234.247 1.326 1.495 2.426 2.772 2.786 3.233 9.786 10.194 12.085 12.017 1.053.836 2.095 1.708 2.315 1.94.57.598 3.307 2.62 3.549 2.62.111 0 .793.54 1.515 1.2.723.66 1.512 1.2 1.753 1.2s1.404.72 2.583 1.6 2.354 1.6 2.61 1.6.777.343 1.157.763c.379.42 1.567 1.14 2.639 1.601s2.046.996 2.164 1.188c.119.192 1.254.761 2.523 1.263s2.577 1.121 2.907 1.375c.581.448 5.163 2.25 7.2 2.832.55.157 1.09.416 1.2.575s2 .781 4.2 1.381c2.2.601 4.27 1.201 4.6 1.334s.78.27 1 .304.67.165 1 .291 1.128.39 1.772.585l1.172.356-2.372 2.528c-4.428 4.718-10.853 10.571-13.742 12.519-1.719 1.159-4.981 3.476-5.83 4.141-.44.345-1.7 1.086-2.8 1.648-1.1.561-2.09 1.153-2.2 1.315-.205.302-9.343 4.801-9.75 4.801-.125 0-1.177.428-2.338.95-2.664 1.199-11.754 4.05-14.877 4.667-3.926.775-9.038 1.6-12.635 2.038-4.137.505-20.558.238-21.286-.346-.283-.226-1.594-.522-2.914-.656-2.821-.288-10.711-1.879-11-2.218-.11-.129-.47-.297-.8-.373-2.193-.503-7.602-2.213-8.6-2.718-.66-.334-2.19-.982-3.4-1.44-2.488-.942-9.091-4.341-11.193-5.762-.766-.518-1.593-.942-1.838-.942s-.778-.368-1.186-.819c-.407-.45-1.29-1.08-1.962-1.399-.672-.32-1.744-1.031-2.383-1.581-.639-.551-1.269-1.002-1.4-1.003s-.78-.496-1.442-1.1-2.282-1.996-3.6-3.092c-2.019-1.681-6.716-6.314-11.809-11.649-.653-.684-1.187-1.436-1.187-1.671s-.45-.782-1-1.215c-.55-.432-1-.914-1-1.071s-.54-.967-1.2-1.8-1.2-1.714-1.2-1.958c0-.243-.159-.442-.354-.442s-.661-.646-1.036-1.436c-.375-.789-1.008-1.762-1.407-2.161s-1.317-2.003-2.041-3.564c-.723-1.562-1.441-2.839-1.596-2.839s-.767-1.215-1.362-2.7c-.594-1.485-1.217-2.79-1.383-2.9-.167-.11-.814-1.73-1.44-3.6-.625-1.87-1.245-3.49-1.378-3.6-.464-.385-3.232-10.798-2.872-10.806.148-.003.066-.138-.182-.3-.513-.334-1.683-7.911-2.146-13.894-.17-2.2-.329-34.87-.353-72.6L56.806 83l2.097-1.18c1.153-.649 2.232-1.144 2.397-1.1s.3-.092.3-.301c0-.21.848-.757 1.885-1.216 1.037-.458 2.174-1.094 2.526-1.413s1.799-1.154 3.215-1.855S71.89 74.553 72 74.422c.172-.204 2.008-1.287 8.177-4.823.673-.386 2.393-1.38 3.823-2.21s3.77-2.175 5.2-2.989 3.77-2.166 5.2-3.004c4.151-2.435 8.411-4.844 11-6.222 1.32-.703 2.49-1.41 2.6-1.573s1.19-.793 2.4-1.401 2.29-1.238 2.4-1.401 1.19-.799 2.4-1.415c1.21-.615 2.47-1.333 2.8-1.595s1.68-1.059 3-1.771 2.607-1.464 2.86-1.672c.253-.207 1.369-.865 2.481-1.462 4.957-2.658 6.272-3.408 6.459-3.682.11-.161 1.37-.896 2.8-1.634s3.202-1.747 3.938-2.242c.735-.496 2.04-1.212 2.9-1.591.859-.379 1.606-.879 1.66-1.112s.205 32.877.336 73.577.361 74.72.511 75.6m198.144-71c-.133 64.14-.201 70.157-.845 74.2-.98 6.15-3.328 14.955-4.795 17.978-.326.672-.999 2.302-1.496 3.622s-1.029 2.49-1.183 2.6c-.153.11-.719 1.246-1.257 2.525s-1.25 2.642-1.581 3.029-.869 1.231-1.194 1.875c-.824 1.634-1.697 3.134-1.96 3.371-.122.11-.828 1.145-1.568 2.3-.739 1.155-1.467 2.1-1.616 2.1-.15 0-.434.343-.633.762-.348.733-2.214 2.973-6.279 7.534-2.025 2.272-9.705 9.21-10.62 9.593-.296.124-1.101.74-1.789 1.368-.688.629-1.407 1.143-1.597 1.143s-1.095.532-2.011 1.183c-1.806 1.283-5.013 3.084-7.865 4.419-3.257 1.523-3.798 1.794-4 2.005-.11.114-1.46.634-3 1.154-1.54.519-3.172 1.174-3.628 1.454-.857.527-8.509 2.531-10.972 2.873-.77.107-1.629.382-1.91.611-1.015.827-.112-3.701 1.456-7.299.521-1.197 1.872-6.682 2.266-9.2.154-.99.439-2.102.633-2.471 1.992-3.795 2.091-7.846 2.247-91.197l.147-78.267 1.105-.385c.607-.212 1.364-.632 1.68-.934.317-.302 1.628-1.073 2.915-1.714 1.286-.642 2.549-1.361 2.807-1.599.257-.238 1.36-.883 2.449-1.433 1.09-.55 2.335-1.315 2.768-1.7.434-.385.964-.7 1.179-.7s1.666-.775 3.224-1.723c1.559-.948 3.509-2.069 4.334-2.491s1.5-.907 1.5-1.077.225-.323.5-.34c.275-.018 1.31-.547 2.3-1.177s3.06-1.807 4.6-2.616 2.89-1.606 3-1.771 1.181-.795 2.38-1.4c1.2-.605 2.64-1.411 3.2-1.79 1.295-.877 5.28-3.207 7.62-4.455.99-.528 1.89-1.071 2-1.208.11-.136 1.19-.744 2.4-1.352s2.29-1.238 2.4-1.4 1.19-.792 2.4-1.4 2.29-1.231 2.4-1.386c.11-.154 1.37-.894 2.8-1.644s2.69-1.545 2.8-1.767c.394-.795.432 9.381.289 78.197" fill="#04b4e4"/><path d="M215.997 425.966c-2.278.318-5.247 1.165-5.597 1.596-.11.136-1.121.669-2.246 1.185-1.772.813-4.855 3.412-7.002 5.902-5.116 5.934-6.068 18.172-2.046 26.31 3.01 6.09 8.669 10.595 15.413 12.269 3.035.754 11.626.305 13.881-.724.99-.451 2.44-1.086 3.223-1.41 2.143-.887 6.331-4.007 6.355-4.735.012-.352-.494-1.18-1.125-1.841-.631-.66-1.249-1.451-1.375-1.759-.184-.453-.336-.426-.797.141-.313.385-.696.7-.852.7-.155 0-.872.45-1.593 1-.722.55-1.437 1-1.59 1s-.766.355-1.362.788c-3.469 2.523-15.801 2.597-17.664.106-.121-.162-1.145-.912-2.277-1.667-1.131-.755-2.391-1.902-2.8-2.549a123.027 123.027 0 0 0-1.444-2.227c-3.78-5.669-3.823-15.14-.095-20.8.768-1.167 1.396-2.273 1.396-2.459 0-.185.585-.738 1.3-1.227s1.481-1.105 1.701-1.369c.679-.81 3.486-2.063 5.799-2.587 1.21-.275 2.613-.659 3.119-.854 1.17-.452 2.695-.454 3.586-.005.382.192 2.045.665 3.695 1.051 2.808.656 5.14 1.562 5.6 2.178 1.577 2.108 3.405 1.978 4.572-.324l.986-1.946-1.079-.985c-3.929-3.588-12.767-5.724-19.682-4.758M3.28 443.5c.131 18.647.187 19.121 2.58 21.722.517.562.94 1.22.94 1.463 0 1.08 6.203 5.315 7.784 5.315.339 0 .616.167.616.372 0 2.032 13.011 1.558 17.6-.641 9.735-4.665 10.789-7.538 10.795-29.431l.005-15.9H38v15.127c0 18.912-.277 20.118-5.541 24.102-7.707 5.834-21.237 2.118-23.044-6.329-.153-.715-.444-1.3-.647-1.3-.218 0-.368-6.443-.368-15.8v-15.8H3.16zm70.32 6.334v23.435l10.539-.135c7.074-.09 10.724-.283 11.1-.588.309-.249 1.191-.584 1.961-.743 1.711-.354 5.2-1.804 5.2-2.161 0-.143.61-.588 1.355-.99 3.241-1.745 6.58-7.066 7.675-12.226 1.213-5.726-.052-18.826-1.819-18.826-.178 0-.44-.463-.582-1.029-.43-1.709-5.547-6.494-8.144-7.613a146.441 146.441 0 0 1-3.085-1.364c-1.938-.919-5.026-1.175-14.3-1.184l-9.9-.01zm76.923-21.528c-.482 1.042-1.191 2.794-1.576 3.894s-.913 2.36-1.173 2.8c-.261.44-.973 2.24-1.583 4s-1.327 3.56-1.593 4c-.267.44-.9 1.97-1.407 3.4s-1.075 2.802-1.263 3.049c-.187.247-.804 1.777-1.371 3.4-.566 1.623-1.17 3.131-1.342 3.351s-.899 2.02-1.615 4-1.462 3.802-1.658 4.049c-.195.246-.782 1.686-1.304 3.2-.523 1.513-1.231 3.278-1.574 3.922-.866 1.627-.594 1.829 2.465 1.829h2.682l.888-1.9c.488-1.045 1.352-3.16 1.919-4.7 1.74-4.722 2.3-5.709 3.382-5.953.55-.124 4.06-.806 7.8-1.515s6.89-1.412 7-1.562 1.113-.397 2.228-.549l2.028-.276.963 2.827c.529 1.556 1.085 2.828 1.235 2.828.149 0 .586 1.035.971 2.3s1.111 3.2 1.614 4.3 1.1 2.495 1.328 3.1c.608 1.618 6.033 1.733 6.033.129 0-.535-.227-1.21-.504-1.5-.278-.291-1.004-1.962-1.614-3.714-.61-1.751-1.243-3.281-1.407-3.4-.164-.118-.812-1.745-1.44-3.615s-1.364-3.762-1.635-4.205c-.272-.443-.979-2.15-1.572-3.792-.592-1.642-1.204-3.08-1.359-3.194-.155-.115-.699-1.469-1.208-3.009-.51-1.54-1.264-3.52-1.677-4.4s-1.224-2.86-1.802-4.4-1.192-2.98-1.366-3.2c-.173-.22-.817-1.84-1.431-3.6-1.332-3.818-1.295-3.788-4.585-3.788h-2.6zM267.2 449.8v23.4h5.6v-46.8h-5.6zm31.681-20.9l.119 2.5 8.096.108 8.097.109.103 20.691L315.4 473l2.9.118 2.9.117V431.6h16v-5.2h-38.438zm57.919-2.159c0 .187.443.952.984 1.7a32.832 32.832 0 0 1 1.787 2.817c.441.802 1.04 1.702 1.33 2s1.129 1.532 1.866 2.742c.736 1.21 1.459 2.29 1.607 2.4.147.11.681.88 1.186 1.711.505.83 1.138 1.73 1.405 2 .268.269 1.002 1.369 1.632 2.444.629 1.076 1.562 2.407 2.074 2.959.511.552.929 1.22.929 1.486s.405.934.9 1.485c1.881 2.094 1.9 2.218 1.9 12.71V473.2h5.6v-9.816c0-10.29.177-11.428 2.088-13.442.822-.867 2.712-3.887 2.712-4.333 0-.225.176-.409.392-.409.215 0 .741-.675 1.169-1.5.427-.825 1.07-1.86 1.427-2.3s1.807-2.6 3.222-4.8c1.416-2.2 2.802-4.264 3.082-4.588.279-.323.705-.953.945-1.4.241-.446.826-1.492 1.3-2.324.475-.832.863-1.597.863-1.7 0-.446-5.687-.157-6.129.312-.259.275-1.725 2.39-3.258 4.7-1.532 2.31-2.883 4.29-3.001 4.4s-.754 1.01-1.413 2c-.66.99-1.43 2.044-1.712 2.342s-.871 1.243-1.308 2.1c-.438.857-.959 1.558-1.16 1.558s-.472.315-.603.7c-.917 2.701-1.543 2.521-3.811-1.1-.758-1.21-1.539-2.313-1.735-2.451-.197-.137-.743-.881-1.214-1.652-1.133-1.856-3.99-6.044-4.295-6.297-.133-.11-.738-1.01-1.345-2-.606-.99-1.311-1.98-1.565-2.2s-.779-.895-1.166-1.5c-.704-1.101-6.685-1.781-6.685-.759m-260.589 5.908c4.99 2.002 9.789 8.148 9.789 12.536 0 .422.18.879.4 1.015.49.303.538 6.868.053 7.168-.192.118-.47.976-.618 1.906-1.36 8.501-8.084 12.708-20.335 12.72l-6.3.006v-36.475l7.5.158c6.346.134 7.81.283 9.511.966m59.417 5.361c.49 1.424 1.011 2.68 1.157 2.79.147.11.862 1.865 1.59 3.9s1.437 3.7 1.576 3.7c.389 0 1.235 2.968.924 3.24-.151.133-3.065.725-6.475 1.317-3.41.591-6.605 1.279-7.099 1.527-1.587.795-1.339-.662.957-5.629.342-.739 1.071-2.629 1.619-4.199.549-1.57 1.127-2.945 1.286-3.056.25-.174.641-1.161 2.532-6.4.441-1.221.657-.907 1.933 2.81" fill="#2c3c44"/><g fill="#18b8bc"><path d="M254.596 137.2c0 43.89.047 61.845.104 39.9s.057-57.855 0-79.8-.104-3.99-.104 39.9"/><path d="M254.596 137.2c0 43.89.047 61.845.104 39.9s.057-57.855 0-79.8-.104-3.99-.104 39.9"/><path d="M254.596 137.2c0 43.89.047 61.845.104 39.9s.057-57.855 0-79.8-.104-3.99-.104 39.9"/></g></g></svg>