<svg height="142" viewBox="0 0 1676 746" width="400" xmlns="http://www.w3.org/2000/svg"><g fill="none" fill-rule="evenodd"><g transform="translate(540)"><path d="m365.4 450.4h109.2v-109.2l77.2-77.2-77.2-77.1v-109.3h-109.2l-77.1-77.1-77.2 77.1h-109.2v109.3l-77.2 77.1 77.2 77.2v109.2h109.2l77.2 77.1z" fill="#fbbc05"/><path d="m288.3 95.6c92.9 0 168.4 75.6 168.4 168.4s-75.6 168.4-168.4 168.4c-92.9 0-168.4-75.6-168.4-168.4s75.5-168.4 168.4-168.4m0-9.5c-98.3 0-178 79.7-178 178s79.7 178 178 178 178-79.7 178-178-79.7-178-178-178" fill="#fff"/><path d="m296.5 181.7-.2 1.1-35.8 157.6-1.3 6h22.2l.2-1.1 35.8-157.6 1.3-6zm-56.6 21.5-2.9 2.2-64.5 50.2-4.3 3.4v10.3l4.3 3.4 64.5 50.2 2.9 2.2v-27.1l-43.4-33.8 43.4-33.8zm96.5 0v27.1l43.4 33.8-43.4 33.8v27.1l2.9-2.2 64.5-50.2 4.3-3.4v-10.3l-4.3-3.4-64.5-50.2z" fill="#fff"/><circle cx="288.2" cy="264" r="176" stroke="#fff" stroke-width="24"/><path d="m.2 1h576v527h-576z"/></g><g fill="#757575"><g transform="translate(431 622)"><path d="m32.5 56c-10.1-2.9-17.5-6.5-22.1-10.7s-6.9-9.5-6.9-15.7c0-7.1 2.8-12.9 8.5-17.5s13-6.9 22-6.9c6.2 0 11.6 1.2 16.5 3.6 4.8 2.4 8.6 5.7 11.2 9.8 2.6 4.2 4 8.8 4 13.7h-11.9c0-5.4-1.7-9.7-5.2-12.8-3.4-3.1-8.3-4.7-14.6-4.7-5.8 0-10.4 1.3-13.6 3.9s-4.9 6.1-4.9 10.7c0 3.7 1.5 6.8 4.6 9.3s8.4 4.8 15.8 6.9 13.3 4.4 17.5 6.9 7.3 5.5 9.4 8.8c2 3.4 3 7.3 3 11.9 0 7.3-2.8 13.1-8.5 17.4-5.7 4.4-13.2 6.6-22.7 6.6-6.2 0-11.9-1.2-17.2-3.5s-9.4-5.6-12.3-9.7-4.3-8.8-4.3-14h11.9c0 5.4 2 9.7 6 12.8s9.3 4.7 16 4.7c6.2 0 11-1.3 14.3-3.8s5-6 5-10.4-1.5-7.8-4.6-10.2-8.9-4.7-16.9-7.1z"/><path d="m120.1 89.4c-4.4 5.2-10.9 7.8-19.5 7.8-7.1 0-12.5-2.1-16.2-6.2s-5.6-10.2-5.6-18.3v-43.3h11.4v43c0 10.1 4.1 15.1 12.3 15.1 8.7 0 14.5-3.2 17.3-9.7v-48.4h11.4v66.6h-10.8z"/><path d="m159.2 29.4.3 7.4c4.9-5.7 11.5-8.6 19.7-8.6 9.3 0 15.6 3.6 19 10.7 2.2-3.2 5.1-5.8 8.6-7.8s7.7-3 12.6-3c14.6 0 22 7.7 22.3 23.2v44.6h-11.4v-43.9c0-4.8-1.1-8.3-3.3-10.7s-5.8-3.5-11-3.5c-4.2 0-7.7 1.3-10.5 3.8s-4.4 5.9-4.9 10.2v44.2h-11.4v-43.6c0-9.7-4.7-14.5-14.2-14.5-7.5 0-12.6 3.2-15.3 9.5v48.6h-11.4v-66.6z"/><path d="m269.6 29.4.3 7.4c4.9-5.7 11.5-8.6 19.7-8.6 9.3 0 15.6 3.6 19 10.7 2.2-3.2 5.1-5.8 8.6-7.8s7.7-3 12.6-3c14.6 0 22 7.7 22.3 23.2v44.6h-11.4v-43.9c0-4.8-1.1-8.3-3.3-10.7s-5.8-3.5-11-3.5c-4.2 0-7.7 1.3-10.5 3.8s-4.4 5.9-4.9 10.2v44.2h-11.4v-43.6c0-9.7-4.7-14.5-14.2-14.5-7.5 0-12.6 3.2-15.3 9.5v48.6h-11.4v-66.6z"/><path d="m397 97.2c-9 0-16.4-3-22-8.9-5.7-5.9-8.5-13.9-8.5-23.8v-2.1c0-6.6 1.3-12.5 3.8-17.7s6-9.2 10.6-12.2c4.5-2.9 9.4-4.4 14.7-4.4 8.7 0 15.4 2.9 20.2 8.6s7.2 13.9 7.2 24.5v4.7h-45.1c.2 6.6 2.1 11.9 5.8 15.9s8.3 6.1 14 6.1c4 0 7.4-.8 10.2-2.5 2.8-1.6 5.2-3.8 7.3-6.5l7 5.4c-5.7 8.6-14.1 12.9-25.2 12.9zm-1.4-59.7c-4.6 0-8.4 1.7-11.6 5-3.1 3.3-5 8-5.8 14.1h33.3v-.9c-.3-5.8-1.9-10.3-4.7-13.4-2.7-3.2-6.5-4.8-11.2-4.8z"/><path d="m468.3 39.6c-1.7-.3-3.6-.4-5.6-.4-7.5 0-12.5 3.2-15.2 9.5v47.2h-11.4v-66.6h11.1l.2 7.7c3.7-5.9 9-8.9 15.9-8.9 2.2 0 3.9.3 5 .9z"/><path d="m506.9 62c0-6.5 1.3-12.4 3.8-17.6 2.6-5.2 6.1-9.2 10.7-12.1s9.8-4.2 15.7-4.2c9.1 0 16.4 3.1 22 9.4s8.4 14.6 8.4 25v.8c0 6.5-1.2 12.3-3.7 17.4s-6 9.2-10.6 12c-4.6 2.9-9.9 4.3-15.9 4.3-9 0-16.3-3.1-21.9-9.4s-8.4-14.6-8.4-24.9v-.7zm11.5 1.4c0 7.4 1.7 13.3 5.1 17.8s8 6.7 13.8 6.7 10.4-2.3 13.8-6.8 5.1-10.9 5.1-19c0-7.3-1.7-13.2-5.2-17.7s-8.1-6.8-13.8-6.8c-5.6 0-10.2 2.2-13.6 6.7-3.5 4.4-5.2 10.8-5.2 19.1z"/><path d="m587.4 95.9v-57.8h-10.5v-8.8h10.5v-6.8c0-7.1 1.9-12.7 5.7-16.5 3.8-3.9 9.2-5.8 16.2-5.8 2.6 0 5.2.3 7.8 1l-.6 9.2c-1.9-.4-4-.6-6.2-.6-3.7 0-6.5 1.1-8.6 3.2s-3 5.3-3 9.3v7h14.2v8.8h-14.2v57.8z"/><path d="m724.4 67.5c-1.1 9.5-4.6 16.8-10.5 21.9s-13.7 7.7-23.5 7.7c-10.6 0-19.1-3.8-25.4-11.4-6.4-7.6-9.6-17.7-9.6-30.5v-8.6c0-8.3 1.5-15.6 4.5-22 3-6.3 7.2-11.2 12.6-14.6s11.8-5.1 18.9-5.1c9.5 0 17.1 2.7 22.9 8 5.7 5.3 9.1 12.7 10 22.1h-11.9c-1-7.2-3.3-12.3-6.7-15.6s-8.2-4.8-14.4-4.8c-7.5 0-13.5 2.8-17.7 8.4s-6.4 13.5-6.4 23.8v8.7c0 9.7 2 17.5 6.1 23.2s9.7 8.6 17 8.6c6.6 0 11.6-1.5 15.1-4.5s5.8-8.2 7-15.5h12z"/><path d="m735.7 62c0-6.5 1.3-12.4 3.8-17.6 2.6-5.2 6.1-9.2 10.7-12.1s9.8-4.2 15.7-4.2c9.1 0 16.4 3.1 22 9.4s8.4 14.6 8.4 25v.8c0 6.5-1.2 12.3-3.7 17.4s-6 9.2-10.6 12c-4.6 2.9-9.9 4.3-15.9 4.3-9 0-16.3-3.1-21.9-9.4s-8.4-14.6-8.4-24.9v-.7zm11.5 1.4c0 7.4 1.7 13.3 5.1 17.8s8 6.7 13.8 6.7 10.4-2.3 13.8-6.8 5.1-10.9 5.1-19c0-7.3-1.7-13.2-5.2-17.7s-8.1-6.8-13.8-6.8c-5.6 0-10.2 2.2-13.6 6.7-3.5 4.4-5.2 10.8-5.2 19.1z"/><path d="m807.8 62.1c0-10.2 2.4-18.4 7.3-24.6s11.2-9.3 19-9.3 14 2.7 18.5 8v-34.7h11.4v94.5h-10.5l-.6-7.1c-4.6 5.6-10.9 8.4-19 8.4-7.7 0-14-3.2-18.9-9.5s-7.3-14.6-7.3-24.7v-1zm11.4 1.3c0 7.5 1.6 13.5 4.7 17.7 3.1 4.3 7.4 6.4 12.9 6.4 7.2 0 12.5-3.2 15.8-9.7v-30.6c-3.4-6.3-8.6-9.4-15.7-9.4-5.6 0-9.9 2.2-13 6.5s-4.7 10.6-4.7 19.1z"/><path d="m909.3 97.2c-9 0-16.4-3-22-8.9-5.7-5.9-8.5-13.9-8.5-23.8v-2.1c0-6.6 1.3-12.5 3.8-17.7s6-9.2 10.6-12.2c4.5-2.9 9.4-4.4 14.7-4.4 8.7 0 15.4 2.9 20.2 8.6s7.2 13.9 7.2 24.5v4.7h-45.1c.2 6.6 2.1 11.9 5.8 15.9s8.3 6.1 14 6.1c4 0 7.4-.8 10.2-2.5 2.8-1.6 5.2-3.8 7.3-6.5l7 5.4c-5.7 8.6-14 12.9-25.2 12.9zm-1.4-59.7c-4.6 0-8.4 1.7-11.6 5-3.1 3.3-5 8-5.8 14.1h33.3v-.9c-.3-5.8-1.9-10.3-4.7-13.4-2.7-3.2-6.5-4.8-11.2-4.8z"/></g><g transform="translate(1406 627)"><path d="m60 90.8h-58.2v-8.1l30.8-34.2c4.6-5.2 7.7-9.4 9.4-12.6s2.6-6.6 2.6-10c0-4.6-1.4-8.4-4.2-11.4s-6.6-4.5-11.2-4.5c-5.6 0-10 1.6-13.1 4.8s-4.7 7.6-4.7 13.3h-11.3c0-8.2 2.6-14.8 7.9-19.8s12.3-7.6 21.1-7.6c8.3 0 14.8 2.2 19.6 6.5s7.2 10.1 7.2 17.3c0 8.7-5.6 19.2-16.7 31.2l-23.8 25.8h44.6z"/><path d="m127.7 52.9c0 13.2-2.3 23.1-6.8 29.5s-11.6 9.6-21.2 9.6c-9.5 0-16.5-3.1-21.1-9.4s-6.9-15.7-7.1-28.2v-15.1c0-13.1 2.3-22.8 6.8-29.1s11.6-9.5 21.2-9.5 16.6 3.1 21.1 9.2 6.8 15.6 7 28.4v14.6zm-11.3-15.4c0-9.6-1.3-16.5-4-20.9s-6.9-6.6-12.8-6.6c-5.8 0-10 2.2-12.6 6.5-2.6 4.4-4 11-4.1 20.1v18.1c0 9.6 1.4 16.7 4.2 21.3s7 6.9 12.7 6.9c5.6 0 9.7-2.2 12.4-6.5s4.1-11.1 4.2-20.4z"/><path d="m179.3 90.8h-11.4v-75.3l-22.8 8.4v-10.3l32.3-12.1h1.8v89.3z"/><path d="m256.6 1.9v9.6h-2.1c-8.8.2-15.8 2.8-21 7.8s-8.2 12.1-9 21.3c4.7-5.4 11.1-8.1 19.2-8.1 7.7 0 13.9 2.7 18.5 8.2s6.9 12.5 6.9 21.1c0 9.2-2.5 16.5-7.5 22s-11.7 8.2-20.1 8.2c-8.5 0-15.4-3.3-20.7-9.8s-7.9-14.9-7.9-25.2v-4.3c0-16.4 3.5-28.9 10.5-37.5s17.4-13.1 31.2-13.3zm-14.8 40c-3.9 0-7.4 1.2-10.7 3.5s-5.5 5.2-6.8 8.7v4.2c0 7.3 1.6 13.2 4.9 17.7s7.4 6.7 12.3 6.7c5.1 0 9.1-1.9 12-5.6s4.4-8.6 4.4-14.7-1.5-11-4.4-14.8-6.8-5.7-11.7-5.7z"/></g><path d="m64.1293945 4.90283203c8.9111774 4.67938538 14.3635968 12.87835937 16.3574219 24.59716797h-12.0239258c-1.464851-6.5511395-4.4962335-11.3220065-9.0942383-14.3127441-4.5980047-2.9907377-10.3962866-4.486084-17.3950195-4.486084-8.3008227 0-15.2892782 3.1127618-20.9655762 9.3383789-5.6762979 6.225617-8.5144043 15.502868-8.5144043 27.8320312 0 10.6608606 2.3396576 19.3379386 7.019043 26.0314942s12.3087036 10.0402832 22.8881836 10.0402832c8.0973712 0 14.8009988-2.34983 20.111084-7.0495606 5.3100851-4.6997305 8.0261224-12.2985315 8.1481933-22.7966308h-28.0761718v-10.0708008h39.3676758v47.9736328h-7.8125l-2.9296875-11.5356445c-4.1097211 4.5166241-7.751449 7.6497308-10.925293 9.399414-5.3304303 3.0110828-12.1052649 4.5166016-20.324707 4.5166016-10.6201703 0-19.7550074-3.4382794-27.4047852-10.3149414-8.34151306-8.6263452-12.51220703-20.4670471-12.51220703-35.5224609 0-15.0147236 4.06896973-26.9571497 12.20703123-35.8276368 7.7311585-8.46358395 17.740824-12.69531247 30.0292969-12.69531247 8.4228937 0 15.7063495 1.62758789 21.8505859 4.8828125zm76.0803225 71.74682617c2.705905-5.5135367 4.058838-11.6475085 4.058838-18.4020996 0-6.1035461-.976553-11.0676892-2.929688-14.8925781-3.092463-6.0221656-8.422814-9.0332032-15.991211-9.0332032-6.713901 0-11.596664 2.563451-14.648437 7.6904297-3.051773 5.1269788-4.577637 11.3118128-4.577637 18.5546875 0 6.9580426 1.525864 12.7563245 4.577637 17.3950196 3.051773 4.638695 7.893847 6.9580078 14.526367 6.9580078 7.283565 0 12.278225-2.756727 14.984131-8.2702637zm6.80542-43.4875488c5.818714 5.6152624 8.728027 13.875271 8.728027 24.7802734 0 10.5387897-2.563451 19.2463849-7.69043 26.1230469-5.126978 6.876662-13.081814 10.3149414-23.864746 10.3149414-8.992558 0-16.1336-3.0415549-21.42334-9.1247559-5.2897396-6.083201-7.9345699-14.2516577-7.9345699-24.5056152 0-10.9863831 2.7872443-19.734668 8.3618169-26.2451172 5.574572-6.5104492 13.061476-9.765625 22.460937-9.765625 8.422894 0 15.543591 2.8075891 21.362305 8.4228516zm62.713623 43.4875488c2.705905-5.5135367 4.058838-11.6475085 4.058838-18.4020996 0-6.1035461-.976553-11.0676892-2.929688-14.8925781-3.092463-6.0221656-8.422814-9.0332032-15.991211-9.0332032-6.713901 0-11.596664 2.563451-14.648437 7.6904297-3.051773 5.1269788-4.577637 11.3118128-4.577637 18.5546875 0 6.9580426 1.525864 12.7563245 4.577637 17.3950196 3.051773 4.638695 7.893847 6.9580078 14.526367 6.9580078 7.283565 0 12.278225-2.756727 14.984131-8.2702637zm6.80542-43.4875488c5.818714 5.6152624 8.728027 13.875271 8.728027 24.7802734 0 10.5387897-2.563451 19.2463849-7.69043 26.1230469-5.126978 6.876662-13.081814 10.3149414-23.864746 10.3149414-8.992558 0-16.1336-3.0415549-21.42334-9.1247559s-7.93457-14.2516577-7.93457-24.5056152c0-10.9863831 2.787244-19.734668 8.361817-26.2451172 5.574572-6.5104492 13.061476-9.765625 22.460937-9.765625 8.422894 0 15.543591 2.8075891 21.362305 8.4228516zm58.288574-3.90625c2.075206 1.4241607 4.19107 3.4993353 6.347656 6.2255859v-8.2397461h10.131836v59.4482422c0 8.3008228-1.220691 14.8518636-3.662109 19.6533206-4.557315 8.870487-13.163186 13.305664-25.817871 13.305664-7.039424 0-12.959775-1.576726-17.761231-4.730225s-7.486976-8.087124-8.05664-14.801025h11.169433c.528974 2.929702 1.586906 5.18798 3.173828 6.774902 2.482109 2.441419 6.38832 3.66211 11.71875 3.66211 8.422894 0 13.936348-2.970348 16.540528-8.911133 1.546231-3.4993668 2.258301-9.7452353 2.13623-18.7377933-2.197277 3.3366052-4.842107 5.8186768-7.93457 7.4462891-3.092464 1.6276123-7.181778 2.4414062-12.268067 2.4414062-7.080113 0-13.27512-2.5125888-18.585205-7.5378418s-7.965088-13.3361236-7.965088-24.9328613c0-10.9456927 2.675348-19.4905292 8.026123-25.6347656 5.350776-6.1442365 11.810265-9.2163086 19.378663-9.2163086 5.126978 0 9.602845 1.2613806 13.427734 3.7841797zm1.342773 11.7797851c-3.336605-3.9062695-7.588678-5.859375-12.756347-5.859375-7.731159 0-13.020819 3.6213831-15.869141 10.8642578-1.505541 3.8655793-2.258301 8.9314466-2.258301 15.1977539 0 7.3649457 1.495347 12.9699515 4.486084 16.8151856 2.990738 3.8452341 7.008845 5.7678223 12.054444 5.7678223 7.893919 0 13.448063-3.5603485 16.662597-10.6811524 1.790374-4.0283404 2.685547-8.7280005 2.685547-14.0991211 0-8.0973712-1.668277-14.0991015-5.004883-18.0053711zm31.982422-38.69628903h10.986328v89.66064453h-10.986328zm68.17627 26.09252933c4.353863 2.1769314 7.670073 4.994693 9.94873 8.4533691 2.197277 3.2959149 3.662106 7.1410913 4.394531 11.5356445.651045 3.0110828.976563 7.8124671.976563 14.4042969h-47.912598c.203452 6.6325202 1.770005 11.9526981 4.699707 15.9606934s7.466604 6.0119629 13.61084 6.0119629c5.737334 0 10.314925-1.892071 13.73291-5.6762696 1.953135-2.1972766 3.336585-4.7403827 4.150391-7.6293945h10.803223c-.284833 2.4007281-1.230868 5.0760757-2.838135 8.026123s-3.407786 5.3609119-5.401611 7.2326661c-3.336606 3.2552246-7.46661 5.4524682-12.390137 6.5917968-2.64487.651045-5.635563.9765625-8.972168.9765625-8.138062 0-15.034965-2.9601754-20.690918-8.8806152s-8.483887-14.2109656-8.483887-24.8718262c0-10.4980993 2.848279-19.0225909 8.544922-25.5737304 5.696643-6.5511396 13.142858-9.8266602 22.338867-9.8266602 4.638695 0 9.134907 1.0884494 13.48877 3.2653809zm4.02832 25.6652832c-.447593-4.760766-1.485181-8.5652527-3.112793-11.4135742-3.011083-5.28974-8.03626-7.9345704-15.075684-7.9345704-5.045598 0-9.277326 1.820864-12.695312 5.4626465-3.417986 3.6417826-5.228677 8.2702356-5.432129 13.8854981z" transform="translate(0 626)"/></g></g></svg>