<svg height="180" viewBox="0 0 230.4 40" width="500" xmlns="http://www.w3.org/2000/svg"><path d="m74 22.9c0 3.3-2.8 6.1-6.5 6.1s-6.5-2.7-6.5-6.1v-11.9h-2v12c0 4.3 3.3 8 8.5 8s8.5-3.8 8.5-8v-12h-2zm21.3-11.9h-6.3v20h6.3c5.8 0 9.7-3.8 9.7-10 0-6.1-3.9-10-9.7-10zm-.2 18h-4.1v-16h4.1c4.7 0 7.9 3.3 7.9 8 0 5-3.1 8-7.9 8zm55.9 0c-4.6 0-7.9-3.8-7.9-8.4s3.3-8.1 7.9-8.1c3.6 0 5.9 2.1 5.9 2.1l1-1.4s-2.3-2.5-7-2.5c-5.5 0-9.8 4.3-9.8 9.9s4.1 10.4 9.9 10.4c4.8 0 7.4-3.3 7.4-3.3l-1.1-1.3c-.1 0-2.4 2.6-6.3 2.6zm20 2h2v-20h-2zm13-18h7v18h2v-18h7v-2h-16zm39.2-2-6.2 9-6.3-9h-2.2l7.5 11.1v8.9h2v-8.9l7.4-11.1zm-101.3 0-7.9 20h2.1l2.1-5.7 8.8-1.8 2.8 7.5h2.1l-7.9-20zm-2.8 12.1 3.9-9.4h.1l3.3 8z" fill="#2d3c49"/><path d="m13.3 0-13.3 7.7v17.6c0 8.1 6.5 14.7 14.6 14.7 2.7 0 5.2-.7 7.4-1.9l10.8-6.2c4.3-2.3 7.2-6.7 7.2-11.9v-18.4l-2.6-1.5-11.4 6.1v19.2c0 .8-.1 1.6-.2 2.4-.2.8-.4 1.5-.7 2.2l-.3.6c-.4 0-2.9-.9-4.2-1.8-.6-.4-1.1-.8-1.6-1.3s-.9-1-1.3-1.6-1.8-3.2-1.8-5.8v-18.6zm6.5 36.2c-.7.3-1.7.7-2.5.9s-1.5.2-2.3.2-1.6-.1-2.4-.3-1.5-.4-2.2-.7-1.4-.7-2-1.1c-1.7-1.2-2.5-2.2-3.2-3.3-.4-.6-.8-1.3-1.1-2s-.5-1.5-.7-2.3c-.4-.7-.4-1.5-.4-2.3v-16.1l10-6.1v16.9c0 6.4 4.7 11.8 10.7 13.1-.2.3-.4.6-.7.8-1.1 1.1-2 1.8-3.2 2.3zm17-14c-.1.7-.4 1.4-.6 2-.3.6-.6 1.2-1 1.8s-1.6 2.1-3.2 3-3.1 1.2-4 1.4c.6-1.6 1-3.2 1-5v-17.7l8-4.6v16.9c0 .8 0 1.5-.2 2.2z" fill="#02b3e4"/></svg>