<?xml version="1.0" standalone="no"?>
<!DOCTYPE svg PUBLIC "-//W3C//DTD SVG 20010904//EN"
 "http://www.w3.org/TR/2001/REC-SVG-20010904/DTD/svg10.dtd">
<svg version="1.0" xmlns="http://www.w3.org/2000/svg"
 width="950.000000pt" height="248.000000pt" viewBox="0 0 950.000000 248.000000"
 preserveAspectRatio="xMidYMid meet">
<metadata>
Created by potrace 1.13, written by Peter Selinger 2001-2015
</metadata>
<g transform="translate(0.000000,248.000000) scale(0.100000,-0.100000)"
fill="#000000" stroke="none">
<path d="M6614 2081 c-44 -27 -64 -59 -64 -104 0 -72 63 -127 145 -127 148 0
201 170 73 234 -43 22 -116 20 -154 -3z"/>
<path d="M5211 2037 c-4 -4 -6 -340 -4 -745 l4 -737 107 0 107 0 3 85 c3 112
9 125 33 79 25 -49 90 -103 169 -142 63 -31 68 -32 200 -31 134 0 136 0 212
36 137 64 232 176 280 331 31 100 32 312 1 402 -57 169 -157 277 -308 335
-119 46 -295 39 -411 -16 -44 -21 -141 -108 -149 -135 -4 -10 -11 -17 -16 -13
-7 4 -10 105 -8 275 1 148 0 272 -3 275 -9 8 -208 10 -217 1z m689 -560 c52
-18 105 -53 140 -94 145 -165 97 -523 -83 -614 -104 -53 -184 -61 -291 -27
-56 18 -79 32 -122 75 -82 81 -113 165 -114 304 0 174 78 298 225 355 41 16
202 17 245 1z"/>
<path d="M1375 1968 c-3 -7 -4 -328 -3 -713 l3 -700 115 0 114 0 1 285 0 285
77 3 78 3 26 -38 c14 -21 64 -99 111 -173 47 -74 109 -172 139 -217 30 -46 54
-86 54 -89 0 -3 9 -19 21 -35 l20 -29 115 0 c64 0 114 4 114 9 0 6 -79 130
-177 278 -97 147 -176 275 -177 282 -1 8 13 19 29 24 97 31 142 55 196 104
134 124 167 329 83 508 -35 76 -138 160 -239 195 -63 23 -166 30 -418 30 -213
0 -279 -3 -282 -12z m619 -199 c94 -34 136 -106 136 -227 0 -83 -31 -163 -78
-202 -58 -48 -119 -60 -296 -60 l-156 0 0 255 0 255 170 0 c147 0 177 -3 224
-21z"/>
<path d="M7148 1803 l-3 -138 -75 -3 c-41 -2 -77 -7 -80 -11 -3 -5 -4 -43 -2
-85 l4 -75 76 -3 77 -3 5 -350 c4 -213 10 -362 17 -381 53 -150 164 -209 383
-202 l105 3 0 90 0 90 -105 5 c-58 3 -115 10 -126 17 -45 26 -49 57 -49 403
l0 325 140 5 140 5 0 80 0 80 -135 3 c-92 2 -137 6 -142 15 -5 7 -8 64 -8 127
1 63 1 121 1 128 -1 9 -30 12 -111 12 l-109 0 -3 -137z"/>
<path d="M2960 1670 c-8 -5 -25 -10 -38 -10 -12 0 -30 -4 -40 -9 -9 -5 -30
-15 -47 -22 -60 -27 -143 -89 -182 -136 -97 -118 -125 -202 -125 -378 0 -113
4 -140 26 -205 58 -170 172 -283 351 -346 72 -26 299 -26 370 -1 99 36 159 72
221 134 175 175 215 484 93 714 -60 112 -204 221 -333 252 -58 14 -278 19
-296 7z m250 -193 c146 -50 220 -173 220 -362 0 -137 -35 -230 -113 -302 -52
-48 -72 -59 -135 -79 -159 -48 -342 44 -401 202 -12 30 -24 92 -27 137 -14
187 49 323 180 387 54 26 72 30 151 30 50 0 106 -6 125 -13z"/>
<path d="M4270 1670 c-14 -4 -45 -14 -70 -21 -123 -36 -245 -139 -304 -256
-51 -102 -71 -243 -52 -369 17 -107 33 -157 77 -230 62 -102 165 -181 309
-235 48 -19 302 -19 350 -1 204 79 318 198 371 387 9 31 14 98 14 180 0 111
-4 140 -24 195 -64 178 -196 296 -386 345 -60 16 -242 19 -285 5z m286 -207
c141 -69 215 -238 185 -421 -29 -174 -101 -263 -250 -308 -149 -45 -321 33
-384 175 -66 150 -59 325 20 444 34 52 116 117 147 117 8 0 18 5 21 10 3 6 50
10 106 10 88 0 107 -3 155 -27z"/>
<path d="M8105 1670 c-11 -4 -39 -13 -62 -20 -58 -18 -132 -77 -168 -134 -28
-47 -30 -55 -30 -151 0 -99 1 -101 35 -149 64 -89 135 -125 350 -176 138 -33
203 -62 235 -104 25 -35 26 -107 2 -157 -27 -54 -79 -79 -165 -79 -125 0 -222
65 -246 165 -13 51 -21 55 -123 55 -107 0 -113 -5 -94 -73 39 -136 144 -240
291 -287 31 -10 88 -15 180 -14 124 0 140 2 192 26 127 59 198 161 198 287 0
164 -93 250 -335 309 -174 43 -206 54 -247 79 -52 32 -71 73 -66 142 4 48 9
59 41 86 45 39 120 55 192 40 110 -23 156 -71 191 -203 3 -10 29 -12 106 -10
l103 3 -3 40 c-5 59 -58 161 -111 215 -49 49 -113 85 -191 107 -50 14 -244 16
-275 3z"/>
<path d="M6582 1108 l3 -553 110 0 110 0 0 550 0 550 -113 3 -112 3 2 -553z"/>
<path d="M9115 931 c-22 -10 -55 -34 -73 -55 -30 -35 -32 -41 -32 -115 0 -88
15 -120 83 -175 33 -27 45 -30 97 -29 187 4 268 217 132 347 -49 45 -140 58
-207 27z"/>
</g>
</svg>
